<svg width="586" height="586" viewBox="0 0 586 586" fill="none" xmlns="http://www.w3.org/2000/svg">
<g filter="url(#filter0_b_163_57)">
<rect width="586" height="586" rx="293" fill="#6AE1BC"/>
<rect x="2.5" y="2.5" width="581" height="581" rx="290.5" stroke="#355076" stroke-width="5"/>
</g>
<path d="M215.12 304.32L204.896 277.584C204.16 275.76 203.424 273.456 202.688 270.672C202.336 272.048 201.968 273.328 201.584 274.512C201.232 275.696 200.88 276.752 200.528 277.68L190.352 304.32H215.12ZM235.328 330H227.456C226.56 330 225.824 329.776 225.248 329.328C224.672 328.88 224.256 328.304 224 327.6L217.904 311.616H187.52L181.424 327.6C181.2 328.208 180.784 328.768 180.176 329.28C179.568 329.76 178.832 330 177.968 330H170.096L197.552 261.072H207.872L235.328 330ZM263.47 294.288C266.094 294.288 268.398 293.968 270.382 293.328C272.398 292.688 274.078 291.792 275.422 290.64C276.766 289.456 277.774 288.064 278.446 286.464C279.118 284.832 279.454 283.04 279.454 281.088C279.454 277.12 278.142 274.128 275.518 272.112C272.926 270.096 269.022 269.088 263.806 269.088H254.158V294.288H263.47ZM295.63 330H286.51C284.686 330 283.358 329.28 282.526 327.84L265.486 303.936C264.942 303.136 264.35 302.576 263.71 302.256C263.07 301.904 262.11 301.728 260.83 301.728H254.158V330H243.934V261.072H263.806C268.254 261.072 272.078 261.536 275.278 262.464C278.51 263.36 281.166 264.656 283.246 266.352C285.358 268.016 286.91 270.032 287.902 272.4C288.926 274.768 289.438 277.424 289.438 280.368C289.438 282.768 289.069 285.024 288.333 287.136C287.597 289.248 286.51 291.152 285.07 292.848C283.662 294.512 281.934 295.952 279.886 297.168C277.838 298.384 275.518 299.312 272.926 299.952C274.206 300.72 275.31 301.792 276.238 303.168L295.63 330ZM347.264 321.696L347.216 330H304.496V261.072H347.216V269.376H314.768V291.216H340.88V299.232H314.768V321.696H347.264ZM396.526 304.32L386.302 277.584C385.566 275.76 384.83 273.456 384.094 270.672C383.742 272.048 383.374 273.328 382.99 274.512C382.638 275.696 382.286 276.752 381.934 277.68L371.758 304.32H396.526ZM416.734 330H408.862C407.966 330 407.23 329.776 406.654 329.328C406.078 328.88 405.662 328.304 405.406 327.6L399.31 311.616H368.926L362.83 327.6C362.606 328.208 362.19 328.768 361.582 329.28C360.974 329.76 360.238 330 359.374 330H351.502L378.958 261.072H389.278L416.734 330Z" fill="black"/>
<defs>
<filter id="filter0_b_163_57" x="-10" y="-10" width="606" height="606" filterUnits="userSpaceOnUse" color-interpolation-filters="sRGB">
<feFlood flood-opacity="0" result="BackgroundImageFix"/>
<feGaussianBlur in="BackgroundImage" stdDeviation="5"/>
<feComposite in2="SourceAlpha" operator="in" result="effect1_backgroundBlur_163_57"/>
<feBlend mode="normal" in="SourceGraphic" in2="effect1_backgroundBlur_163_57" result="shape"/>
</filter>
</defs>
</svg>
