<svg width="917" height="788" viewBox="0 0 917 788" fill="none" xmlns="http://www.w3.org/2000/svg">
<path d="M340.5 0L635.382 591H45.6183L340.5 0Z" fill="#1C527A"/>
<path d="M699.705 291.88L692.889 274.056C692.398 272.84 691.908 271.304 691.417 269.448C691.182 270.365 690.937 271.219 690.681 272.008C690.446 272.797 690.212 273.501 689.977 274.12L683.193 291.88H699.705ZM713.177 309H707.929C707.332 309 706.841 308.851 706.457 308.552C706.073 308.253 705.796 307.869 705.625 307.4L701.561 296.744H681.305L677.241 307.4C677.092 307.805 676.814 308.179 676.409 308.52C676.004 308.84 675.513 309 674.937 309H669.689L687.993 263.048H694.873L713.177 309ZM745.218 303.272V309H718.914V263.048H725.73V303.272H745.218ZM777.242 268.744H762.65V309H755.866V268.744H741.21V263.048H777.242V268.744ZM801.772 303.528C803.606 303.528 805.249 303.219 806.7 302.6C808.15 301.981 809.377 301.117 810.38 300.008C811.382 298.877 812.15 297.544 812.684 296.008C813.217 294.451 813.484 292.733 813.484 290.856V263.048H820.268V290.856C820.268 293.544 819.841 296.029 818.988 298.312C818.134 300.595 816.908 302.568 815.308 304.232C813.708 305.896 811.766 307.197 809.484 308.136C807.201 309.075 804.63 309.544 801.772 309.544C798.913 309.544 796.342 309.075 794.06 308.136C791.777 307.197 789.836 305.896 788.236 304.232C786.636 302.568 785.409 300.595 784.556 298.312C783.702 296.029 783.276 293.544 783.276 290.856V263.048H790.092V290.824C790.092 292.701 790.348 294.419 790.86 295.976C791.393 297.533 792.161 298.877 793.164 300.008C794.166 301.117 795.393 301.981 796.844 302.6C798.294 303.219 799.937 303.528 801.772 303.528ZM844.063 285.192C845.812 285.192 847.348 284.979 848.671 284.552C850.015 284.125 851.135 283.528 852.031 282.76C852.927 281.971 853.599 281.043 854.047 279.976C854.495 278.888 854.719 277.693 854.719 276.392C854.719 273.747 853.844 271.752 852.095 270.408C850.367 269.064 847.764 268.392 844.287 268.392H837.855V285.192H844.063ZM865.503 309H859.423C858.207 309 857.322 308.52 856.767 307.56L845.407 291.624C845.044 291.091 844.65 290.717 844.223 290.504C843.796 290.269 843.156 290.152 842.303 290.152H837.855V309H831.039V263.048H844.287C847.252 263.048 849.802 263.357 851.935 263.976C854.09 264.573 855.86 265.437 857.247 266.568C858.655 267.677 859.69 269.021 860.351 270.6C861.034 272.179 861.375 273.949 861.375 275.912C861.375 277.512 861.13 279.016 860.639 280.424C860.148 281.832 859.423 283.101 858.463 284.232C857.524 285.341 856.372 286.301 855.007 287.112C853.642 287.923 852.095 288.541 850.367 288.968C851.22 289.48 851.956 290.195 852.575 291.112L865.503 309ZM895.83 291.88L889.014 274.056C888.523 272.84 888.033 271.304 887.542 269.448C887.307 270.365 887.062 271.219 886.806 272.008C886.571 272.797 886.337 273.501 886.102 274.12L879.318 291.88H895.83ZM909.302 309H904.054C903.457 309 902.966 308.851 902.582 308.552C902.198 308.253 901.921 307.869 901.75 307.4L897.686 296.744H877.43L873.366 307.4C873.217 307.805 872.939 308.179 872.534 308.52C872.129 308.84 871.638 309 871.062 309H865.814L884.118 263.048H890.998L909.302 309Z" fill="black"/>
<path d="M283.955 694.592C285.683 694.592 287.155 694.389 288.371 693.984C289.608 693.579 290.611 693.024 291.379 692.32C292.168 691.616 292.744 690.784 293.107 689.824C293.47 688.843 293.651 687.776 293.651 686.624C293.651 684.341 292.862 682.549 291.283 681.248C289.704 679.925 287.262 679.264 283.955 679.264H274.355V694.592H283.955ZM274.355 659.392V674.432H282.195C285.544 674.432 288.03 673.76 289.651 672.416C291.294 671.051 292.115 669.216 292.115 666.912C292.115 664.288 291.336 662.379 289.779 661.184C288.222 659.989 285.8 659.392 282.515 659.392H274.355ZM282.515 654.048C285.395 654.048 287.859 654.325 289.907 654.88C291.976 655.435 293.672 656.235 294.995 657.28C296.318 658.325 297.288 659.595 297.907 661.088C298.547 662.56 298.867 664.235 298.867 666.112C298.867 667.221 298.696 668.288 298.355 669.312C298.014 670.336 297.491 671.296 296.787 672.192C296.083 673.067 295.198 673.856 294.131 674.56C293.064 675.264 291.806 675.851 290.355 676.32C297.032 677.643 300.371 681.131 300.371 686.784C300.371 688.747 300.008 690.539 299.283 692.16C298.558 693.76 297.502 695.147 296.115 696.32C294.728 697.493 293.022 698.4 290.995 699.04C288.968 699.68 286.664 700 284.083 700H267.539V654.048H282.515ZM332.83 682.88L326.014 665.056C325.523 663.84 325.033 662.304 324.542 660.448C324.307 661.365 324.062 662.219 323.806 663.008C323.571 663.797 323.337 664.501 323.102 665.12L316.318 682.88H332.83ZM346.302 700H341.054C340.457 700 339.966 699.851 339.582 699.552C339.198 699.253 338.921 698.869 338.75 698.4L334.686 687.744H314.43L310.366 698.4C310.217 698.805 309.939 699.179 309.534 699.52C309.129 699.84 308.638 700 308.062 700H302.814L321.118 654.048H327.998L346.302 700ZM375.815 661.536C375.602 661.899 375.378 662.165 375.143 662.336C374.908 662.507 374.61 662.592 374.247 662.592C373.863 662.592 373.426 662.421 372.935 662.08C372.444 661.717 371.826 661.323 371.079 660.896C370.354 660.448 369.479 660.053 368.455 659.712C367.431 659.349 366.204 659.168 364.775 659.168C363.431 659.168 362.247 659.349 361.223 659.712C360.22 660.053 359.378 660.533 358.695 661.152C358.012 661.749 357.49 662.464 357.127 663.296C356.786 664.107 356.615 664.992 356.615 665.952C356.615 667.189 356.924 668.213 357.543 669.024C358.183 669.835 359.015 670.528 360.039 671.104C361.063 671.68 362.226 672.181 363.527 672.608C364.828 673.035 366.162 673.483 367.527 673.952C368.892 674.4 370.226 674.923 371.527 675.52C372.828 676.117 373.991 676.875 375.015 677.792C376.039 678.688 376.86 679.797 377.479 681.12C378.119 682.421 378.439 684.021 378.439 685.92C378.439 687.947 378.087 689.845 377.383 691.616C376.7 693.387 375.698 694.933 374.375 696.256C373.052 697.579 371.42 698.624 369.479 699.392C367.559 700.139 365.372 700.512 362.919 700.512C361.447 700.512 360.018 700.363 358.631 700.064C357.244 699.787 355.932 699.392 354.695 698.88C353.458 698.347 352.295 697.717 351.207 696.992C350.14 696.245 349.18 695.413 348.327 694.496L350.279 691.232C350.471 690.976 350.695 690.763 350.951 690.592C351.228 690.421 351.538 690.336 351.879 690.336C352.327 690.336 352.839 690.571 353.415 691.04C354.012 691.509 354.738 692.032 355.591 692.608C356.466 693.163 357.5 693.675 358.695 694.144C359.911 694.613 361.383 694.848 363.111 694.848C364.519 694.848 365.778 694.667 366.887 694.304C367.996 693.92 368.924 693.387 369.671 692.704C370.439 692 371.026 691.157 371.431 690.176C371.836 689.195 372.039 688.107 372.039 686.912C372.039 685.568 371.73 684.469 371.111 683.616C370.492 682.763 369.671 682.048 368.647 681.472C367.623 680.896 366.46 680.405 365.159 680C363.858 679.595 362.524 679.179 361.159 678.752C359.794 678.304 358.46 677.792 357.159 677.216C355.858 676.64 354.695 675.893 353.671 674.976C352.647 674.037 351.826 672.875 351.207 671.488C350.588 670.08 350.279 668.352 350.279 666.304C350.279 664.661 350.599 663.072 351.239 661.536C351.879 660 352.807 658.645 354.023 657.472C355.26 656.277 356.775 655.328 358.567 654.624C360.359 653.899 362.407 653.536 364.711 653.536C367.292 653.536 369.66 653.952 371.815 654.784C373.991 655.595 375.879 656.768 377.479 658.304L375.815 661.536ZM415.364 694.464L415.332 700H386.852V654.048H415.332V659.584H393.7V674.144H411.108V679.488H393.7V694.464H415.364Z" fill="black"/>
<line x1="634" y1="6" x2="634" y2="592" stroke="#73FAC9" stroke-width="8" stroke-linecap="round"/>
<line x1="632" y1="595" x2="49" y2="595" stroke="#73FAC9" stroke-width="8" stroke-linecap="round"/>
</svg>
