<svg width="798" height="698" viewBox="0 0 798 698" fill="none" xmlns="http://www.w3.org/2000/svg">
<rect y="112" width="586" height="586" fill="#1C527A"/>
<path d="M652.968 438.272V444H626.664V398.048H633.48V438.272H652.968ZM684.018 426.88L677.202 409.056C676.711 407.84 676.22 406.304 675.73 404.448C675.495 405.365 675.25 406.219 674.994 407.008C674.759 407.797 674.524 408.501 674.29 409.12L667.506 426.88H684.018ZM697.49 444H692.242C691.644 444 691.154 443.851 690.77 443.552C690.386 443.253 690.108 442.869 689.938 442.4L685.874 431.744H665.618L661.554 442.4C661.404 442.805 661.127 443.179 660.722 443.52C660.316 443.84 659.826 444 659.25 444H654.002L672.306 398.048H679.186L697.49 444ZM743.323 421.024C743.323 424.459 742.768 427.584 741.659 430.4C740.571 433.216 739.024 435.637 737.019 437.664C735.013 439.669 732.613 441.227 729.819 442.336C727.024 443.445 723.92 444 720.507 444H703.227V398.048H720.507C723.92 398.048 727.024 398.603 729.819 399.712C732.613 400.821 735.013 402.389 737.019 404.416C739.024 406.421 740.571 408.843 741.659 411.68C742.768 414.496 743.323 417.611 743.323 421.024ZM736.347 421.024C736.347 418.293 735.973 415.851 735.227 413.696C734.48 411.52 733.413 409.685 732.027 408.192C730.661 406.677 728.997 405.525 727.035 404.736C725.093 403.947 722.917 403.552 720.507 403.552H710.075V438.496H720.507C722.917 438.496 725.093 438.101 727.035 437.312C728.997 436.523 730.661 435.381 732.027 433.888C733.413 432.373 734.48 430.539 735.227 428.384C735.973 426.229 736.347 423.776 736.347 421.024ZM794.73 421.024C794.73 424.459 794.175 427.616 793.066 430.496C791.978 433.355 790.431 435.829 788.426 437.92C786.421 439.989 784.021 441.6 781.226 442.752C778.431 443.904 775.327 444.48 771.914 444.48C768.522 444.48 765.418 443.904 762.602 442.752C759.807 441.6 757.407 439.989 755.402 437.92C753.418 435.829 751.871 433.355 750.762 430.496C749.653 427.616 749.098 424.459 749.098 421.024C749.098 417.611 749.653 414.464 750.762 411.584C751.871 408.704 753.418 406.229 755.402 404.16C757.407 402.069 759.807 400.448 762.602 399.296C765.418 398.123 768.522 397.536 771.914 397.536C775.327 397.536 778.431 398.123 781.226 399.296C784.021 400.448 786.421 402.069 788.426 404.16C790.431 406.229 791.978 408.704 793.066 411.584C794.175 414.464 794.73 417.611 794.73 421.024ZM787.754 421.024C787.754 418.293 787.381 415.84 786.634 413.664C785.887 411.488 784.821 409.643 783.434 408.128C782.069 406.613 780.405 405.451 778.442 404.64C776.501 403.829 774.325 403.424 771.914 403.424C769.503 403.424 767.317 403.829 765.354 404.64C763.413 405.451 761.749 406.613 760.362 408.128C758.975 409.643 757.909 411.488 757.162 413.664C756.415 415.84 756.042 418.293 756.042 421.024C756.042 423.776 756.415 426.24 757.162 428.416C757.909 430.571 758.975 432.405 760.362 433.92C761.749 435.435 763.413 436.597 765.354 437.408C767.317 438.197 769.503 438.592 771.914 438.592C774.325 438.592 776.501 438.197 778.442 437.408C780.405 436.597 782.069 435.435 783.434 433.92C784.821 432.405 785.887 430.571 786.634 428.416C787.381 426.24 787.754 423.776 787.754 421.024Z" fill="black"/>
<path d="M236.968 57.272V63H210.664V17.048H217.48V57.272H236.968ZM268.018 45.88L261.202 28.056C260.711 26.84 260.22 25.304 259.73 23.448C259.495 24.3653 259.25 25.2187 258.994 26.008C258.759 26.7973 258.524 27.5013 258.29 28.12L251.506 45.88H268.018ZM281.49 63H276.242C275.644 63 275.154 62.8507 274.77 62.552C274.386 62.2533 274.108 61.8693 273.938 61.4L269.874 50.744H249.618L245.554 61.4C245.404 61.8053 245.127 62.1787 244.722 62.52C244.316 62.84 243.826 63 243.25 63H238.002L256.306 17.048H263.186L281.49 63ZM327.323 40.024C327.323 43.4587 326.768 46.584 325.659 49.4C324.571 52.216 323.024 54.6373 321.019 56.664C319.013 58.6693 316.613 60.2267 313.819 61.336C311.024 62.4453 307.92 63 304.507 63H287.227V17.048H304.507C307.92 17.048 311.024 17.6027 313.819 18.712C316.613 19.8213 319.013 21.3893 321.019 23.416C323.024 25.4213 324.571 27.8427 325.659 30.68C326.768 33.496 327.323 36.6107 327.323 40.024ZM320.347 40.024C320.347 37.2933 319.973 34.8507 319.227 32.696C318.48 30.52 317.413 28.6853 316.027 27.192C314.661 25.6773 312.997 24.5253 311.035 23.736C309.093 22.9467 306.917 22.552 304.507 22.552H294.075V57.496H304.507C306.917 57.496 309.093 57.1013 311.035 56.312C312.997 55.5227 314.661 54.3813 316.027 52.888C317.413 51.3733 318.48 49.5387 319.227 47.384C319.973 45.2293 320.347 42.776 320.347 40.024ZM378.73 40.024C378.73 43.4587 378.175 46.616 377.066 49.496C375.978 52.3547 374.431 54.8293 372.426 56.92C370.421 58.9893 368.021 60.6 365.226 61.752C362.431 62.904 359.327 63.48 355.914 63.48C352.522 63.48 349.418 62.904 346.602 61.752C343.807 60.6 341.407 58.9893 339.402 56.92C337.418 54.8293 335.871 52.3547 334.762 49.496C333.653 46.616 333.098 43.4587 333.098 40.024C333.098 36.6107 333.653 33.464 334.762 30.584C335.871 27.704 337.418 25.2293 339.402 23.16C341.407 21.0693 343.807 19.448 346.602 18.296C349.418 17.1227 352.522 16.536 355.914 16.536C359.327 16.536 362.431 17.1227 365.226 18.296C368.021 19.448 370.421 21.0693 372.426 23.16C374.431 25.2293 375.978 27.704 377.066 30.584C378.175 33.464 378.73 36.6107 378.73 40.024ZM371.754 40.024C371.754 37.2933 371.381 34.84 370.634 32.664C369.887 30.488 368.821 28.6427 367.434 27.128C366.069 25.6133 364.405 24.4507 362.442 23.64C360.501 22.8293 358.325 22.424 355.914 22.424C353.503 22.424 351.317 22.8293 349.354 23.64C347.413 24.4507 345.749 25.6133 344.362 27.128C342.975 28.6427 341.909 30.488 341.162 32.664C340.415 34.84 340.042 37.2933 340.042 40.024C340.042 42.776 340.415 45.24 341.162 47.416C341.909 49.5707 342.975 51.4053 344.362 52.92C345.749 54.4347 347.413 55.5973 349.354 56.408C351.317 57.1973 353.503 57.592 355.914 57.592C358.325 57.592 360.501 57.1973 362.442 56.408C364.405 55.5973 366.069 54.4347 367.434 52.92C368.821 51.4053 369.887 49.5707 370.634 47.416C371.381 45.24 371.754 42.776 371.754 40.024Z" fill="black"/>
</svg>
