<svg width="1010" height="810" viewBox="0 0 1010 810" fill="none" xmlns="http://www.w3.org/2000/svg">
<rect x="212" y="112" width="586" height="586" fill="#1C527A"/>
<path d="M31.968 438.272V444H5.664V398.048H12.48V438.272H31.968ZM63.0175 426.88L56.2015 409.056C55.7108 407.84 55.2202 406.304 54.7295 404.448C54.4948 405.365 54.2495 406.219 53.9935 407.008C53.7588 407.797 53.5242 408.501 53.2895 409.12L46.5055 426.88H63.0175ZM76.4895 444H71.2415C70.6442 444 70.1535 443.851 69.7695 443.552C69.3855 443.253 69.1082 442.869 68.9375 442.4L64.8735 431.744H44.6175L40.5535 442.4C40.4042 442.805 40.1268 443.179 39.7215 443.52C39.3162 443.84 38.8255 444 38.2495 444H33.0015L51.3055 398.048H58.1855L76.4895 444ZM122.323 421.024C122.323 424.459 121.768 427.584 120.659 430.4C119.571 433.216 118.024 435.637 116.019 437.664C114.013 439.669 111.613 441.227 108.819 442.336C106.024 443.445 102.92 444 99.5065 444H82.2265V398.048H99.5065C102.92 398.048 106.024 398.603 108.819 399.712C111.613 400.821 114.013 402.389 116.019 404.416C118.024 406.421 119.571 408.843 120.659 411.68C121.768 414.496 122.323 417.611 122.323 421.024ZM115.347 421.024C115.347 418.293 114.973 415.851 114.227 413.696C113.48 411.52 112.413 409.685 111.027 408.192C109.661 406.677 107.997 405.525 106.035 404.736C104.093 403.947 101.917 403.552 99.5065 403.552H89.0745V438.496H99.5065C101.917 438.496 104.093 438.101 106.035 437.312C107.997 436.523 109.661 435.381 111.027 433.888C112.413 432.373 113.48 430.539 114.227 428.384C114.973 426.229 115.347 423.776 115.347 421.024ZM173.73 421.024C173.73 424.459 173.175 427.616 172.066 430.496C170.978 433.355 169.431 435.829 167.426 437.92C165.421 439.989 163.021 441.6 160.226 442.752C157.431 443.904 154.327 444.48 150.914 444.48C147.522 444.48 144.418 443.904 141.602 442.752C138.807 441.6 136.407 439.989 134.402 437.92C132.418 435.829 130.871 433.355 129.762 430.496C128.653 427.616 128.098 424.459 128.098 421.024C128.098 417.611 128.653 414.464 129.762 411.584C130.871 408.704 132.418 406.229 134.402 404.16C136.407 402.069 138.807 400.448 141.602 399.296C144.418 398.123 147.522 397.536 150.914 397.536C154.327 397.536 157.431 398.123 160.226 399.296C163.021 400.448 165.421 402.069 167.426 404.16C169.431 406.229 170.978 408.704 172.066 411.584C173.175 414.464 173.73 417.611 173.73 421.024ZM166.754 421.024C166.754 418.293 166.381 415.84 165.634 413.664C164.887 411.488 163.821 409.643 162.434 408.128C161.069 406.613 159.405 405.451 157.442 404.64C155.501 403.829 153.325 403.424 150.914 403.424C148.503 403.424 146.317 403.829 144.354 404.64C142.413 405.451 140.749 406.613 139.362 408.128C137.975 409.643 136.909 411.488 136.162 413.664C135.415 415.84 135.042 418.293 135.042 421.024C135.042 423.776 135.415 426.24 136.162 428.416C136.909 430.571 137.975 432.405 139.362 433.92C140.749 435.435 142.413 436.597 144.354 437.408C146.317 438.197 148.503 438.592 150.914 438.592C153.325 438.592 155.501 438.197 157.442 437.408C159.405 436.597 161.069 435.435 162.434 433.92C163.821 432.405 164.887 430.571 165.634 428.416C166.381 426.24 166.754 423.776 166.754 421.024Z" fill="black"/>
<path d="M448.968 790.272V796H422.664V750.048H429.48V790.272H448.968ZM480.018 778.88L473.202 761.056C472.711 759.84 472.22 758.304 471.73 756.448C471.495 757.365 471.25 758.219 470.994 759.008C470.759 759.797 470.524 760.501 470.29 761.12L463.506 778.88H480.018ZM493.49 796H488.242C487.644 796 487.154 795.851 486.77 795.552C486.386 795.253 486.108 794.869 485.938 794.4L481.874 783.744H461.618L457.554 794.4C457.404 794.805 457.127 795.179 456.722 795.52C456.316 795.84 455.826 796 455.25 796H450.002L468.306 750.048H475.186L493.49 796ZM539.323 773.024C539.323 776.459 538.768 779.584 537.659 782.4C536.571 785.216 535.024 787.637 533.019 789.664C531.013 791.669 528.613 793.227 525.819 794.336C523.024 795.445 519.92 796 516.507 796H499.227V750.048H516.507C519.92 750.048 523.024 750.603 525.819 751.712C528.613 752.821 531.013 754.389 533.019 756.416C535.024 758.421 536.571 760.843 537.659 763.68C538.768 766.496 539.323 769.611 539.323 773.024ZM532.347 773.024C532.347 770.293 531.973 767.851 531.227 765.696C530.48 763.52 529.413 761.685 528.027 760.192C526.661 758.677 524.997 757.525 523.035 756.736C521.093 755.947 518.917 755.552 516.507 755.552H506.075V790.496H516.507C518.917 790.496 521.093 790.101 523.035 789.312C524.997 788.523 526.661 787.381 528.027 785.888C529.413 784.373 530.48 782.539 531.227 780.384C531.973 778.229 532.347 775.776 532.347 773.024ZM590.73 773.024C590.73 776.459 590.175 779.616 589.066 782.496C587.978 785.355 586.431 787.829 584.426 789.92C582.421 791.989 580.021 793.6 577.226 794.752C574.431 795.904 571.327 796.48 567.914 796.48C564.522 796.48 561.418 795.904 558.602 794.752C555.807 793.6 553.407 791.989 551.402 789.92C549.418 787.829 547.871 785.355 546.762 782.496C545.653 779.616 545.098 776.459 545.098 773.024C545.098 769.611 545.653 766.464 546.762 763.584C547.871 760.704 549.418 758.229 551.402 756.16C553.407 754.069 555.807 752.448 558.602 751.296C561.418 750.123 564.522 749.536 567.914 749.536C571.327 749.536 574.431 750.123 577.226 751.296C580.021 752.448 582.421 754.069 584.426 756.16C586.431 758.229 587.978 760.704 589.066 763.584C590.175 766.464 590.73 769.611 590.73 773.024ZM583.754 773.024C583.754 770.293 583.381 767.84 582.634 765.664C581.887 763.488 580.821 761.643 579.434 760.128C578.069 758.613 576.405 757.451 574.442 756.64C572.501 755.829 570.325 755.424 567.914 755.424C565.503 755.424 563.317 755.829 561.354 756.64C559.413 757.451 557.749 758.613 556.362 760.128C554.975 761.643 553.909 763.488 553.162 765.664C552.415 767.84 552.042 770.293 552.042 773.024C552.042 775.776 552.415 778.24 553.162 780.416C553.909 782.571 554.975 784.405 556.362 785.92C557.749 787.435 559.413 788.597 561.354 789.408C563.317 790.197 565.503 790.592 567.914 790.592C570.325 790.592 572.501 790.197 574.442 789.408C576.405 788.597 578.069 787.435 579.434 785.92C580.821 784.405 581.887 782.571 582.634 780.416C583.381 778.24 583.754 775.776 583.754 773.024Z" fill="black"/>
<path d="M864.968 438.272V444H838.664V398.048H845.48V438.272H864.968ZM896.018 426.88L889.202 409.056C888.711 407.84 888.22 406.304 887.73 404.448C887.495 405.365 887.25 406.219 886.994 407.008C886.759 407.797 886.524 408.501 886.29 409.12L879.506 426.88H896.018ZM909.49 444H904.242C903.644 444 903.154 443.851 902.77 443.552C902.386 443.253 902.108 442.869 901.938 442.4L897.874 431.744H877.618L873.554 442.4C873.404 442.805 873.127 443.179 872.722 443.52C872.316 443.84 871.826 444 871.25 444H866.002L884.306 398.048H891.186L909.49 444ZM955.323 421.024C955.323 424.459 954.768 427.584 953.659 430.4C952.571 433.216 951.024 435.637 949.019 437.664C947.013 439.669 944.613 441.227 941.819 442.336C939.024 443.445 935.92 444 932.507 444H915.227V398.048H932.507C935.92 398.048 939.024 398.603 941.819 399.712C944.613 400.821 947.013 402.389 949.019 404.416C951.024 406.421 952.571 408.843 953.659 411.68C954.768 414.496 955.323 417.611 955.323 421.024ZM948.347 421.024C948.347 418.293 947.973 415.851 947.227 413.696C946.48 411.52 945.413 409.685 944.027 408.192C942.661 406.677 940.997 405.525 939.035 404.736C937.093 403.947 934.917 403.552 932.507 403.552H922.075V438.496H932.507C934.917 438.496 937.093 438.101 939.035 437.312C940.997 436.523 942.661 435.381 944.027 433.888C945.413 432.373 946.48 430.539 947.227 428.384C947.973 426.229 948.347 423.776 948.347 421.024ZM1006.73 421.024C1006.73 424.459 1006.18 427.616 1005.07 430.496C1003.98 433.355 1002.43 435.829 1000.43 437.92C998.421 439.989 996.021 441.6 993.226 442.752C990.431 443.904 987.327 444.48 983.914 444.48C980.522 444.48 977.418 443.904 974.602 442.752C971.807 441.6 969.407 439.989 967.402 437.92C965.418 435.829 963.871 433.355 962.762 430.496C961.653 427.616 961.098 424.459 961.098 421.024C961.098 417.611 961.653 414.464 962.762 411.584C963.871 408.704 965.418 406.229 967.402 404.16C969.407 402.069 971.807 400.448 974.602 399.296C977.418 398.123 980.522 397.536 983.914 397.536C987.327 397.536 990.431 398.123 993.226 399.296C996.021 400.448 998.421 402.069 1000.43 404.16C1002.43 406.229 1003.98 408.704 1005.07 411.584C1006.18 414.464 1006.73 417.611 1006.73 421.024ZM999.754 421.024C999.754 418.293 999.381 415.84 998.634 413.664C997.887 411.488 996.821 409.643 995.434 408.128C994.069 406.613 992.405 405.451 990.442 404.64C988.501 403.829 986.325 403.424 983.914 403.424C981.503 403.424 979.317 403.829 977.354 404.64C975.413 405.451 973.749 406.613 972.362 408.128C970.975 409.643 969.909 411.488 969.162 413.664C968.415 415.84 968.042 418.293 968.042 421.024C968.042 423.776 968.415 426.24 969.162 428.416C969.909 430.571 970.975 432.405 972.362 433.92C973.749 435.435 975.413 436.597 977.354 437.408C979.317 438.197 981.503 438.592 983.914 438.592C986.325 438.592 988.501 438.197 990.442 437.408C992.405 436.597 994.069 435.435 995.434 433.92C996.821 432.405 997.887 430.571 998.634 428.416C999.381 426.24 999.754 423.776 999.754 421.024Z" fill="black"/>
<path d="M448.968 57.272V63H422.664V17.048H429.48V57.272H448.968ZM480.018 45.88L473.202 28.056C472.711 26.84 472.22 25.304 471.73 23.448C471.495 24.3653 471.25 25.2187 470.994 26.008C470.759 26.7973 470.524 27.5013 470.29 28.12L463.506 45.88H480.018ZM493.49 63H488.242C487.644 63 487.154 62.8507 486.77 62.552C486.386 62.2533 486.108 61.8693 485.938 61.4L481.874 50.744H461.618L457.554 61.4C457.404 61.8053 457.127 62.1787 456.722 62.52C456.316 62.84 455.826 63 455.25 63H450.002L468.306 17.048H475.186L493.49 63ZM539.323 40.024C539.323 43.4587 538.768 46.584 537.659 49.4C536.571 52.216 535.024 54.6373 533.019 56.664C531.013 58.6693 528.613 60.2267 525.819 61.336C523.024 62.4453 519.92 63 516.507 63H499.227V17.048H516.507C519.92 17.048 523.024 17.6027 525.819 18.712C528.613 19.8213 531.013 21.3893 533.019 23.416C535.024 25.4213 536.571 27.8427 537.659 30.68C538.768 33.496 539.323 36.6107 539.323 40.024ZM532.347 40.024C532.347 37.2933 531.973 34.8507 531.227 32.696C530.48 30.52 529.413 28.6853 528.027 27.192C526.661 25.6773 524.997 24.5253 523.035 23.736C521.093 22.9467 518.917 22.552 516.507 22.552H506.075V57.496H516.507C518.917 57.496 521.093 57.1013 523.035 56.312C524.997 55.5227 526.661 54.3813 528.027 52.888C529.413 51.3733 530.48 49.5387 531.227 47.384C531.973 45.2293 532.347 42.776 532.347 40.024ZM590.73 40.024C590.73 43.4587 590.175 46.616 589.066 49.496C587.978 52.3547 586.431 54.8293 584.426 56.92C582.421 58.9893 580.021 60.6 577.226 61.752C574.431 62.904 571.327 63.48 567.914 63.48C564.522 63.48 561.418 62.904 558.602 61.752C555.807 60.6 553.407 58.9893 551.402 56.92C549.418 54.8293 547.871 52.3547 546.762 49.496C545.653 46.616 545.098 43.4587 545.098 40.024C545.098 36.6107 545.653 33.464 546.762 30.584C547.871 27.704 549.418 25.2293 551.402 23.16C553.407 21.0693 555.807 19.448 558.602 18.296C561.418 17.1227 564.522 16.536 567.914 16.536C571.327 16.536 574.431 17.1227 577.226 18.296C580.021 19.448 582.421 21.0693 584.426 23.16C586.431 25.2293 587.978 27.704 589.066 30.584C590.175 33.464 590.73 36.6107 590.73 40.024ZM583.754 40.024C583.754 37.2933 583.381 34.84 582.634 32.664C581.887 30.488 580.821 28.6427 579.434 27.128C578.069 25.6133 576.405 24.4507 574.442 23.64C572.501 22.8293 570.325 22.424 567.914 22.424C565.503 22.424 563.317 22.8293 561.354 23.64C559.413 24.4507 557.749 25.6133 556.362 27.128C554.975 28.6427 553.909 30.488 553.162 32.664C552.415 34.84 552.042 37.2933 552.042 40.024C552.042 42.776 552.415 45.24 553.162 47.416C553.909 49.5707 554.975 51.4053 556.362 52.92C557.749 54.4347 559.413 55.5973 561.354 56.408C563.317 57.1973 565.503 57.592 567.914 57.592C570.325 57.592 572.501 57.1973 574.442 56.408C576.405 55.5973 578.069 54.4347 579.434 52.92C580.821 51.4053 581.887 49.5707 582.634 47.416C583.381 45.24 583.754 42.776 583.754 40.024Z" fill="black"/>
</svg>
