<svg width="586" height="586" viewBox="0 0 586 586" fill="none" xmlns="http://www.w3.org/2000/svg">
<rect x="4" y="4" width="578" height="578" rx="289" stroke="#26426A" stroke-width="8"/>
<path d="M310.52 242.68C312.16 242.68 313.6 242.48 314.84 242.08C316.1 241.68 317.15 241.12 317.99 240.4C318.83 239.66 319.46 238.79 319.88 237.79C320.3 236.77 320.51 235.65 320.51 234.43C320.51 231.95 319.69 230.08 318.05 228.82C316.43 227.56 313.99 226.93 310.73 226.93H304.7V242.68H310.52ZM330.62 265H324.92C323.78 265 322.95 264.55 322.43 263.65L311.78 248.71C311.44 248.21 311.07 247.86 310.67 247.66C310.27 247.44 309.67 247.33 308.87 247.33H304.7V265H298.31V221.92H310.73C313.51 221.92 315.9 222.21 317.9 222.79C319.92 223.35 321.58 224.16 322.88 225.22C324.2 226.26 325.17 227.52 325.79 229C326.43 230.48 326.75 232.14 326.75 233.98C326.75 235.48 326.52 236.89 326.06 238.21C325.6 239.53 324.92 240.72 324.02 241.78C323.14 242.82 322.06 243.72 320.78 244.48C319.5 245.24 318.05 245.82 316.43 246.22C317.23 246.7 317.92 247.37 318.5 248.23L330.62 265ZM359.052 248.95L352.662 232.24C352.202 231.1 351.742 229.66 351.282 227.92C351.062 228.78 350.832 229.58 350.592 230.32C350.372 231.06 350.152 231.72 349.932 232.3L343.572 248.95H359.052ZM371.682 265H366.762C366.202 265 365.742 264.86 365.382 264.58C365.022 264.3 364.762 263.94 364.602 263.5L360.792 253.51H341.802L337.992 263.5C337.852 263.88 337.592 264.23 337.212 264.55C336.832 264.85 336.372 265 335.832 265H330.912L348.072 221.92H354.522L371.682 265ZM414.65 243.46C414.65 246.68 414.13 249.61 413.09 252.25C412.07 254.89 410.62 257.16 408.74 259.06C406.86 260.94 404.61 262.4 401.99 263.44C399.37 264.48 396.46 265 393.26 265H377.06V221.92H393.26C396.46 221.92 399.37 222.44 401.99 223.48C404.61 224.52 406.86 225.99 408.74 227.89C410.62 229.77 412.07 232.04 413.09 234.7C414.13 237.34 414.65 240.26 414.65 243.46ZM408.11 243.46C408.11 240.9 407.76 238.61 407.06 236.59C406.36 234.55 405.36 232.83 404.06 231.43C402.78 230.01 401.22 228.93 399.38 228.19C397.56 227.45 395.52 227.08 393.26 227.08H383.48V259.84H393.26C395.52 259.84 397.56 259.47 399.38 258.73C401.22 257.99 402.78 256.92 404.06 255.52C405.36 254.1 406.36 252.38 407.06 250.36C407.76 248.34 408.11 246.04 408.11 243.46ZM429.125 265H422.705V221.92H429.125V265ZM479.895 243.46C479.895 246.68 479.375 249.64 478.335 252.34C477.315 255.02 475.865 257.34 473.985 259.3C472.105 261.24 469.855 262.75 467.235 263.83C464.615 264.91 461.705 265.45 458.505 265.45C455.325 265.45 452.415 264.91 449.775 263.83C447.155 262.75 444.905 261.24 443.025 259.3C441.165 257.34 439.715 255.02 438.675 252.34C437.635 249.64 437.115 246.68 437.115 243.46C437.115 240.26 437.635 237.31 438.675 234.61C439.715 231.91 441.165 229.59 443.025 227.65C444.905 225.69 447.155 224.17 449.775 223.09C452.415 221.99 455.325 221.44 458.505 221.44C461.705 221.44 464.615 221.99 467.235 223.09C469.855 224.17 472.105 225.69 473.985 227.65C475.865 229.59 477.315 231.91 478.335 234.61C479.375 237.31 479.895 240.26 479.895 243.46ZM473.355 243.46C473.355 240.9 473.005 238.6 472.305 236.56C471.605 234.52 470.605 232.79 469.305 231.37C468.025 229.95 466.465 228.86 464.625 228.1C462.805 227.34 460.765 226.96 458.505 226.96C456.245 226.96 454.195 227.34 452.355 228.1C450.535 228.86 448.975 229.95 447.675 231.37C446.375 232.79 445.375 234.52 444.675 236.56C443.975 238.6 443.625 240.9 443.625 243.46C443.625 246.04 443.975 248.35 444.675 250.39C445.375 252.41 446.375 254.13 447.675 255.55C448.975 256.97 450.535 258.06 452.355 258.82C454.195 259.56 456.245 259.93 458.505 259.93C460.765 259.93 462.805 259.56 464.625 258.82C466.465 258.06 468.025 256.97 469.305 255.55C470.605 254.13 471.605 252.41 472.305 250.39C473.005 248.35 473.355 246.04 473.355 243.46Z" fill="#0047FF"/>
<line y1="289" x2="586" y2="289" stroke="black" stroke-width="8"/>
<line x1="293" y1="289" x2="586" y2="289" stroke="#0047FF" stroke-width="8"/>
<path d="M192.76 376.024C192.76 379.459 192.205 382.584 191.096 385.4C190.008 388.216 188.461 390.637 186.456 392.664C184.451 394.669 182.051 396.227 179.256 397.336C176.461 398.445 173.357 399 169.944 399H152.664V353.048H169.944C173.357 353.048 176.461 353.603 179.256 354.712C182.051 355.821 184.451 357.389 186.456 359.416C188.461 361.421 190.008 363.843 191.096 366.68C192.205 369.496 192.76 372.611 192.76 376.024ZM185.784 376.024C185.784 373.293 185.411 370.851 184.664 368.696C183.917 366.52 182.851 364.685 181.464 363.192C180.099 361.677 178.435 360.525 176.472 359.736C174.531 358.947 172.355 358.552 169.944 358.552H159.512V393.496H169.944C172.355 393.496 174.531 393.101 176.472 392.312C178.435 391.523 180.099 390.381 181.464 388.888C182.851 387.373 183.917 385.539 184.664 383.384C185.411 381.229 185.784 378.776 185.784 376.024ZM208.2 399H201.352V353.048H208.2V399ZM243.955 381.88L237.139 364.056C236.648 362.84 236.158 361.304 235.667 359.448C235.432 360.365 235.187 361.219 234.931 362.008C234.696 362.797 234.462 363.501 234.227 364.12L227.443 381.88H243.955ZM257.427 399H252.179C251.582 399 251.091 398.851 250.707 398.552C250.323 398.253 250.046 397.869 249.875 397.4L245.811 386.744H225.555L221.491 397.4C221.342 397.805 221.064 398.179 220.659 398.52C220.254 398.84 219.763 399 219.187 399H213.939L232.243 353.048H239.123L257.427 399ZM311.484 353.048V399H305.532V366.296C305.532 365.805 305.543 365.283 305.564 364.728C305.607 364.173 305.649 363.608 305.692 363.032L290.396 391.096C289.863 392.141 289.041 392.664 287.932 392.664H286.972C285.863 392.664 285.052 392.141 284.54 391.096L268.956 362.936C269.084 364.131 269.148 365.251 269.148 366.296V399H263.164V353.048H268.22C268.817 353.048 269.276 353.112 269.596 353.24C269.937 353.347 270.257 353.667 270.556 354.2L285.916 381.72C286.215 382.275 286.492 382.861 286.748 383.48C287.004 384.099 287.249 384.717 287.484 385.336C287.932 384.077 288.455 382.861 289.052 381.688L304.124 354.2C304.401 353.667 304.7 353.347 305.02 353.24C305.361 353.112 305.831 353.048 306.428 353.048H311.484ZM351.364 393.464L351.332 399H322.852V353.048H351.332V358.584H329.7V373.144H347.108V378.488H329.7V393.464H351.364ZM391.117 358.744H376.525V399H369.741V358.744H355.085V353.048H391.117V358.744ZM410.751 375.192C412.5 375.192 414.036 374.979 415.359 374.552C416.703 374.125 417.823 373.528 418.719 372.76C419.615 371.971 420.287 371.043 420.735 369.976C421.183 368.888 421.407 367.693 421.407 366.392C421.407 363.747 420.532 361.752 418.783 360.408C417.055 359.064 414.452 358.392 410.975 358.392H404.543V375.192H410.751ZM432.191 399H426.111C424.895 399 424.009 398.52 423.455 397.56L412.095 381.624C411.732 381.091 411.337 380.717 410.911 380.504C410.484 380.269 409.844 380.152 408.991 380.152H404.543V399H397.727V353.048H410.975C413.94 353.048 416.489 353.357 418.623 353.976C420.777 354.573 422.548 355.437 423.935 356.568C425.343 357.677 426.377 359.021 427.039 360.6C427.721 362.179 428.062 363.949 428.062 365.912C428.062 367.512 427.817 369.016 427.326 370.424C426.836 371.832 426.111 373.101 425.151 374.232C424.212 375.341 423.06 376.301 421.695 377.112C420.329 377.923 418.783 378.541 417.055 378.968C417.908 379.48 418.644 380.195 419.263 381.112L432.191 399ZM480.418 376.024C480.418 379.459 479.863 382.616 478.754 385.496C477.666 388.355 476.119 390.829 474.114 392.92C472.108 394.989 469.708 396.6 466.914 397.752C464.119 398.904 461.015 399.48 457.602 399.48C454.21 399.48 451.106 398.904 448.29 397.752C445.495 396.6 443.095 394.989 441.09 392.92C439.106 390.829 437.559 388.355 436.45 385.496C435.34 382.616 434.786 379.459 434.786 376.024C434.786 372.611 435.34 369.464 436.45 366.584C437.559 363.704 439.106 361.229 441.09 359.16C443.095 357.069 445.495 355.448 448.29 354.296C451.106 353.123 454.21 352.536 457.602 352.536C461.015 352.536 464.119 353.123 466.914 354.296C469.708 355.448 472.108 357.069 474.114 359.16C476.119 361.229 477.666 363.704 478.754 366.584C479.863 369.464 480.418 372.611 480.418 376.024ZM473.442 376.024C473.442 373.293 473.068 370.84 472.322 368.664C471.575 366.488 470.508 364.643 469.122 363.128C467.756 361.613 466.092 360.451 464.13 359.64C462.188 358.829 460.012 358.424 457.602 358.424C455.191 358.424 453.004 358.829 451.042 359.64C449.1 360.451 447.436 361.613 446.05 363.128C444.663 364.643 443.596 366.488 442.85 368.664C442.103 370.84 441.73 373.293 441.73 376.024C441.73 378.776 442.103 381.24 442.85 383.416C443.596 385.571 444.663 387.405 446.05 388.92C447.436 390.435 449.1 391.597 451.042 392.408C453.004 393.197 455.191 393.592 457.602 393.592C460.012 393.592 462.188 393.197 464.13 392.408C466.092 391.597 467.756 390.435 469.122 388.92C470.508 387.405 471.575 385.571 472.322 383.416C473.068 381.24 473.442 378.776 473.442 376.024Z" fill="black"/>
</svg>
