<svg width="421" height="165" viewBox="0 0 421 165" fill="none" xmlns="http://www.w3.org/2000/svg">
<rect x="2.5" y="2.5" width="416" height="160" stroke="#1C527A" stroke-width="5"/>
<path d="M107.395 81.048C107.395 87.9173 106.286 94.168 104.067 99.8C101.891 105.432 98.7977 110.275 94.787 114.328C90.7763 118.339 85.9763 121.453 80.387 123.672C74.7977 125.891 68.5897 127 61.763 127H27.203V35.096H61.763C68.5897 35.096 74.7977 36.2053 80.387 38.424C85.9763 40.6427 90.7763 43.7787 94.787 47.832C98.7977 51.8427 101.891 56.6853 104.067 62.36C106.286 67.992 107.395 74.2213 107.395 81.048ZM93.443 81.048C93.443 75.5867 92.6963 70.7013 91.203 66.392C89.7097 62.04 87.5763 58.3707 84.803 55.384C82.0723 52.3547 78.7443 50.0507 74.819 48.472C70.9363 46.8933 66.5843 46.104 61.763 46.104H40.899V115.992H61.763C66.5843 115.992 70.9363 115.203 74.819 113.624C78.7443 112.045 82.0723 109.763 84.803 106.776C87.5763 103.747 89.7097 100.077 91.203 95.768C92.6963 91.4587 93.443 86.552 93.443 81.048ZM122.658 90.072H178.082V99.544H122.658V90.072ZM122.658 68.312H178.082V77.784H122.658V68.312ZM282.979 115.16C284.344 115.16 285.411 115.565 286.179 116.376C286.947 117.144 287.331 118.168 287.331 119.448V127H225.635V122.712C225.635 121.859 225.806 120.963 226.147 120.024C226.488 119.043 227.064 118.168 227.875 117.4L256.931 88.28C259.363 85.848 261.56 83.5013 263.523 81.24C265.486 78.9787 267.15 76.7387 268.515 74.52C269.88 72.2587 270.926 69.9547 271.651 67.608C272.419 65.2613 272.803 62.7867 272.803 60.184C272.803 57.624 272.398 55.384 271.587 53.464C270.776 51.5013 269.667 49.88 268.259 48.6C266.851 47.32 265.187 46.36 263.267 45.72C261.347 45.08 259.278 44.76 257.059 44.76C254.84 44.76 252.792 45.08 250.915 45.72C249.08 46.36 247.438 47.256 245.987 48.408C244.536 49.56 243.32 50.9253 242.339 52.504C241.358 54.0827 240.654 55.7893 240.227 57.624C239.63 59.2453 238.862 60.3333 237.923 60.888C237.027 61.4427 235.704 61.5707 233.955 61.272L227.427 60.12C228.024 55.8533 229.198 52.0987 230.947 48.856C232.696 45.6133 234.894 42.904 237.539 40.728C240.184 38.5093 243.214 36.8453 246.627 35.736C250.083 34.6267 253.795 34.072 257.763 34.072C261.774 34.072 265.464 34.6693 268.835 35.864C272.248 37.016 275.192 38.7013 277.667 40.92C280.142 43.1387 282.083 45.848 283.491 49.048C284.899 52.2053 285.603 55.7893 285.603 59.8C285.603 63.2133 285.091 66.392 284.067 69.336C283.086 72.2373 281.72 75.0107 279.971 77.656C278.264 80.3013 276.259 82.8827 273.955 85.4C271.694 87.8747 269.283 90.392 266.723 92.952L243.427 116.76C245.219 116.291 247.011 115.907 248.803 115.608C250.638 115.309 252.366 115.16 253.987 115.16H282.979ZM300.845 119.512C300.845 118.36 301.058 117.272 301.485 116.248C301.912 115.224 302.488 114.328 303.213 113.56C303.981 112.792 304.877 112.195 305.901 111.768C306.925 111.299 308.034 111.064 309.229 111.064C310.381 111.064 311.469 111.299 312.493 111.768C313.517 112.195 314.413 112.792 315.181 113.56C315.949 114.328 316.546 115.224 316.973 116.248C317.442 117.272 317.677 118.36 317.677 119.512C317.677 120.707 317.442 121.816 316.973 122.84C316.546 123.864 315.949 124.76 315.181 125.528C314.413 126.296 313.517 126.893 312.493 127.32C311.469 127.747 310.381 127.96 309.229 127.96C308.034 127.96 306.925 127.747 305.901 127.32C304.877 126.893 303.981 126.296 303.213 125.528C302.488 124.76 301.912 123.864 301.485 122.84C301.058 121.816 300.845 120.707 300.845 119.512ZM361.751 79.384C365.25 79.384 368.322 78.9573 370.967 78.104C373.655 77.2507 375.895 76.056 377.687 74.52C379.479 72.9413 380.823 71.0853 381.719 68.952C382.615 66.776 383.063 64.3867 383.063 61.784C383.063 56.4933 381.314 52.504 377.815 49.816C374.359 47.128 369.154 45.784 362.199 45.784H349.335V79.384H361.751ZM404.631 127H392.471C390.039 127 388.268 126.04 387.159 124.12L364.439 92.248C363.714 91.1813 362.924 90.4347 362.071 90.008C361.218 89.5387 359.938 89.304 358.231 89.304H349.335V127H335.703V35.096H362.199C368.13 35.096 373.228 35.7147 377.495 36.952C381.804 38.1467 385.346 39.8747 388.119 42.136C390.935 44.3547 393.004 47.0427 394.327 50.2C395.692 53.3573 396.375 56.8987 396.375 60.824C396.375 64.024 395.884 67.032 394.903 69.848C393.922 72.664 392.471 75.2027 390.551 77.464C388.674 79.6827 386.37 81.6027 383.639 83.224C380.908 84.8453 377.815 86.0827 374.359 86.936C376.066 87.96 377.538 89.3893 378.775 91.224L404.631 127Z" fill="black"/>
</svg>
