<svg width="624" height="171" viewBox="0 0 624 171" fill="none" xmlns="http://www.w3.org/2000/svg">
<rect x="2.5" y="2.5" width="619" height="165.824" stroke="#1C527A" stroke-width="5"/>
<path d="M79.7225 97.76L66.0905 62.112C65.1092 59.68 64.1278 56.608 63.1465 52.896C62.6772 54.7307 62.1865 56.4373 61.6745 58.016C61.2052 59.5947 60.7358 61.0027 60.2665 62.24L46.6985 97.76H79.7225ZM106.667 132H96.1705C94.9758 132 93.9945 131.701 93.2265 131.104C92.4585 130.507 91.9038 129.739 91.5625 128.8L83.4345 107.488H42.9225L34.7945 128.8C34.4958 129.611 33.9412 130.357 33.1305 131.04C32.3198 131.68 31.3385 132 30.1865 132H19.6905L56.2985 40.096H70.0585L106.667 132ZM116.22 95.072H171.645V104.544H116.22V95.072ZM116.22 73.312H171.645V82.784H116.22V73.312ZM257.598 121.184C261.054 121.184 263.998 120.779 266.43 119.968C268.904 119.157 270.91 118.048 272.446 116.64C274.024 115.232 275.176 113.568 275.902 111.648C276.627 109.685 276.99 107.552 276.99 105.248C276.99 100.683 275.411 97.0987 272.254 94.496C269.096 91.8507 264.211 90.528 257.598 90.528H238.398V121.184H257.598ZM238.398 50.784V80.864H254.078C260.776 80.864 265.747 79.52 268.99 76.832C272.275 74.1013 273.918 70.432 273.918 65.824C273.918 60.576 272.36 56.7573 269.246 54.368C266.131 51.9787 261.288 50.784 254.718 50.784H238.398ZM254.718 40.096C260.478 40.096 265.406 40.6507 269.502 41.76C273.64 42.8693 277.032 44.4693 279.678 46.56C282.323 48.6507 284.264 51.1893 285.502 54.176C286.782 57.12 287.422 60.4693 287.422 64.224C287.422 66.4427 287.08 68.576 286.398 70.624C285.715 72.672 284.67 74.592 283.262 76.384C281.854 78.1333 280.083 79.712 277.95 81.12C275.816 82.528 273.299 83.7013 270.398 84.64C283.752 87.2853 290.43 94.2613 290.43 105.568C290.43 109.493 289.704 113.077 288.254 116.32C286.803 119.52 284.691 122.293 281.918 124.64C279.144 126.987 275.731 128.8 271.678 130.08C267.624 131.36 263.016 132 257.854 132H224.766V40.096H254.718ZM335.658 124.512C335.658 123.36 335.871 122.272 336.298 121.248C336.724 120.224 337.3 119.328 338.026 118.56C338.794 117.792 339.69 117.195 340.714 116.768C341.738 116.299 342.847 116.064 344.042 116.064C345.194 116.064 346.282 116.299 347.306 116.768C348.33 117.195 349.226 117.792 349.994 118.56C350.762 119.328 351.359 120.224 351.786 121.248C352.255 122.272 352.49 123.36 352.49 124.512C352.49 125.707 352.255 126.816 351.786 127.84C351.359 128.864 350.762 129.76 349.994 130.528C349.226 131.296 348.33 131.893 347.306 132.32C346.282 132.747 345.194 132.96 344.042 132.96C342.847 132.96 341.738 132.747 340.714 132.32C339.69 131.893 338.794 131.296 338.026 130.528C337.3 129.76 336.724 128.864 336.298 127.84C335.871 126.816 335.658 125.707 335.658 124.512ZM447.473 97.76L433.841 62.112C432.859 59.68 431.878 56.608 430.897 52.896C430.427 54.7307 429.937 56.4373 429.425 58.016C428.955 59.5947 428.486 61.0027 428.017 62.24L414.449 97.76H447.473ZM474.417 132H463.921C462.726 132 461.745 131.701 460.977 131.104C460.209 130.507 459.654 129.739 459.312 128.8L451.185 107.488H410.673L402.545 128.8C402.246 129.611 401.691 130.357 400.881 131.04C400.07 131.68 399.089 132 397.937 132H387.441L424.049 40.096H437.809L474.417 132ZM538.499 120.544V132H485.891V40.096H499.523V120.544H538.499ZM602.547 51.488H573.363V132H559.795V51.488H530.483V40.096H602.547V51.488Z" fill="black"/>
</svg>
