<svg width="421" height="165" viewBox="0 0 421 165" fill="none" xmlns="http://www.w3.org/2000/svg">
<rect x="2.5" y="2.5" width="416" height="160" stroke="#1C527A" stroke-width="5"/>
<path d="M140.785 92.76L127.153 57.112C126.172 54.68 125.19 51.608 124.209 47.896C123.74 49.7307 123.249 51.4373 122.737 53.016C122.268 54.5947 121.798 56.0027 121.329 57.24L107.761 92.76H140.785ZM167.729 127H157.233C156.038 127 155.057 126.701 154.289 126.104C153.521 125.507 152.966 124.739 152.625 123.8L144.497 102.488H103.985L95.857 123.8C95.5583 124.611 95.0037 125.357 94.193 126.04C93.3823 126.68 92.401 127 91.249 127H80.753L117.361 35.096H131.121L167.729 127ZM177.283 90.072H232.707V99.544H177.283V90.072ZM177.283 68.312H232.707V77.784H177.283V68.312ZM338.436 115.544V127H285.828V35.096H299.46V115.544H338.436Z" fill="black"/>
<path d="M364.053 57.08C364.736 57.08 365.269 57.2827 365.653 57.688C366.037 58.072 366.229 58.584 366.229 59.224V63H335.381V60.856C335.381 60.4293 335.466 59.9813 335.637 59.512C335.808 59.0213 336.096 58.584 336.501 58.2L351.029 43.64C352.245 42.424 353.344 41.2507 354.325 40.12C355.306 38.9893 356.138 37.8693 356.821 36.76C357.504 35.6293 358.026 34.4773 358.389 33.304C358.773 32.1307 358.965 30.8933 358.965 29.592C358.965 28.312 358.762 27.192 358.357 26.232C357.952 25.2507 357.397 24.44 356.693 23.8C355.989 23.16 355.157 22.68 354.197 22.36C353.237 22.04 352.202 21.88 351.093 21.88C349.984 21.88 348.96 22.04 348.021 22.36C347.104 22.68 346.282 23.128 345.557 23.704C344.832 24.28 344.224 24.9627 343.733 25.752C343.242 26.5413 342.89 27.3947 342.677 28.312C342.378 29.1227 341.994 29.6667 341.525 29.944C341.077 30.2213 340.416 30.2853 339.541 30.136L336.277 29.56C336.576 27.4267 337.162 25.5493 338.037 23.928C338.912 22.3067 340.01 20.952 341.333 19.864C342.656 18.7547 344.17 17.9227 345.877 17.368C347.605 16.8133 349.461 16.536 351.445 16.536C353.45 16.536 355.296 16.8347 356.981 17.432C358.688 18.008 360.16 18.8507 361.397 19.96C362.634 21.0693 363.605 22.424 364.309 24.024C365.013 25.6027 365.365 27.3947 365.365 29.4C365.365 31.1067 365.109 32.696 364.597 34.168C364.106 35.6187 363.424 37.0053 362.549 38.328C361.696 39.6507 360.693 40.9413 359.541 42.2C358.41 43.4373 357.205 44.696 355.925 45.976L344.277 57.88C345.173 57.6453 346.069 57.4533 346.965 57.304C347.882 57.1547 348.746 57.08 349.557 57.08H364.053Z" fill="black"/>
</svg>
