<svg width="610" height="171" viewBox="0 0 610 171" fill="none" xmlns="http://www.w3.org/2000/svg">
<rect x="2.5" y="2.5" width="605" height="165.824" stroke="#1C527A" stroke-width="5"/>
<path d="M70.418 87.392C73.874 87.392 76.9033 86.944 79.506 86.048C82.1513 85.152 84.3487 83.8933 86.098 82.272C87.89 80.608 89.234 78.6453 90.13 76.384C91.026 74.08 91.474 71.5413 91.474 68.768C91.474 63.1787 89.7247 58.784 86.226 55.584C82.77 52.384 77.5007 50.784 70.418 50.784H56.21V87.392H70.418ZM70.418 40.096C76.306 40.096 81.426 40.7787 85.778 42.144C90.13 43.5093 93.7353 45.4507 96.594 47.968C99.4527 50.4427 101.565 53.4507 102.93 56.992C104.338 60.5333 105.042 64.4587 105.042 68.768C105.042 73.0773 104.295 77.0453 102.802 80.672C101.309 84.256 99.1113 87.3493 96.21 89.952C93.3087 92.5547 89.682 94.5813 85.33 96.032C81.0207 97.44 76.05 98.144 70.418 98.144H56.21V132H42.578V40.096H70.418ZM118.158 95.072H173.582V104.544H118.158V95.072ZM118.158 73.312H173.582V82.784H118.158V73.312ZM279.311 120.544V132H226.703V40.096H240.335V120.544H279.311ZM349.218 93.792H323.426V120.992H313.25V93.792H287.586V84.32H313.25V57.248H323.426V84.32H349.218V93.792ZM419.436 120.544V132H366.828V40.096H380.46V120.544H419.436ZM489.343 93.792H463.551V120.992H453.375V93.792H427.711V84.32H453.375V57.248H463.551V84.32H489.343V93.792ZM539.785 121.184C543.241 121.184 546.185 120.779 548.617 119.968C551.092 119.157 553.097 118.048 554.633 116.64C556.212 115.232 557.364 113.568 558.089 111.648C558.814 109.685 559.177 107.552 559.177 105.248C559.177 100.683 557.598 97.0987 554.441 94.496C551.284 91.8507 546.398 90.528 539.785 90.528H520.585V121.184H539.785ZM520.585 50.784V80.864H536.265C542.964 80.864 547.934 79.52 551.177 76.832C554.462 74.1013 556.105 70.432 556.105 65.824C556.105 60.576 554.548 56.7573 551.433 54.368C548.318 51.9787 543.476 50.784 536.905 50.784H520.585ZM536.905 40.096C542.665 40.096 547.593 40.6507 551.689 41.76C555.828 42.8693 559.22 44.4693 561.865 46.56C564.51 48.6507 566.452 51.1893 567.689 54.176C568.969 57.12 569.609 60.4693 569.609 64.224C569.609 66.4427 569.268 68.576 568.585 70.624C567.902 72.672 566.857 74.592 565.449 76.384C564.041 78.1333 562.27 79.712 560.137 81.12C558.004 82.528 555.486 83.7013 552.585 84.64C565.94 87.2853 572.617 94.2613 572.617 105.568C572.617 109.493 571.892 113.077 570.441 116.32C568.99 119.52 566.878 122.293 564.105 124.64C561.332 126.987 557.918 128.8 553.865 130.08C549.812 131.36 545.204 132 540.041 132H506.953V40.096H536.905Z" fill="black"/>
</svg>
