<svg width="421" height="165" viewBox="0 0 421 165" fill="none" xmlns="http://www.w3.org/2000/svg">
<rect x="2.5" y="2.5" width="416" height="160" stroke="#1C527A" stroke-width="5"/>
<path d="M57.9805 82.392C61.4365 82.392 64.4658 81.944 67.0685 81.048C69.7138 80.152 71.9112 78.8933 73.6605 77.272C75.4525 75.608 76.7965 73.6453 77.6925 71.384C78.5885 69.08 79.0365 66.5413 79.0365 63.768C79.0365 58.1787 77.2872 53.784 73.7885 50.584C70.3325 47.384 65.0632 45.784 57.9805 45.784H43.7725V82.392H57.9805ZM57.9805 35.096C63.8685 35.096 68.9885 35.7787 73.3405 37.144C77.6925 38.5093 81.2978 40.4507 84.1565 42.968C87.0152 45.4427 89.1272 48.4507 90.4925 51.992C91.9005 55.5333 92.6045 59.4587 92.6045 63.768C92.6045 68.0773 91.8578 72.0453 90.3645 75.672C88.8712 79.256 86.6738 82.3493 83.7725 84.952C80.8712 87.5547 77.2445 89.5813 72.8925 91.032C68.5832 92.44 63.6125 93.144 57.9805 93.144H43.7725V127H30.1405V35.096H57.9805ZM134.595 90.072H190.02V99.544H134.595V90.072ZM134.595 68.312H190.02V77.784H134.595V68.312ZM278.277 93.464V57.624C278.277 56.3867 278.298 55.0853 278.341 53.72C278.426 52.312 278.575 50.8613 278.789 49.368L246.597 93.464H278.277ZM302.533 93.464V100.696C302.533 101.421 302.298 102.04 301.829 102.552C301.359 103.064 300.698 103.32 299.845 103.32H289.221V127H278.277V103.32H237.957C237.018 103.32 236.229 103.064 235.589 102.552C234.949 101.997 234.522 101.315 234.309 100.504L233.029 94.104L277.445 35.032H289.221V93.464H302.533ZM312.783 119.512C312.783 118.36 312.996 117.272 313.423 116.248C313.849 115.224 314.425 114.328 315.151 113.56C315.919 112.792 316.815 112.195 317.839 111.768C318.863 111.299 319.972 111.064 321.167 111.064C322.319 111.064 323.407 111.299 324.431 111.768C325.455 112.195 326.351 112.792 327.119 113.56C327.887 114.328 328.484 115.224 328.911 116.248C329.38 117.272 329.615 118.36 329.615 119.512C329.615 120.707 329.38 121.816 328.911 122.84C328.484 123.864 327.887 124.76 327.119 125.528C326.351 126.296 325.455 126.893 324.431 127.32C323.407 127.747 322.319 127.96 321.167 127.96C319.972 127.96 318.863 127.747 317.839 127.32C316.815 126.893 315.919 126.296 315.151 125.528C314.425 124.76 313.849 123.864 313.423 122.84C312.996 121.816 312.783 120.707 312.783 119.512ZM400.249 115.544V127H347.641V35.096H361.273V115.544H400.249Z" fill="black"/>
</svg>
