<svg width="681" height="788" viewBox="0 0 681 788" fill="none" xmlns="http://www.w3.org/2000/svg">
<path d="M340.5 0L635.382 591H45.6183L340.5 0Z" fill="#1C527A"/>
<path d="M481.297 192.481L476.263 195.214L463.715 172.096L504.1 150.174L507.352 156.165L472 175.354L481.297 192.481ZM506.122 214.335L518.535 199.842C519.37 198.83 520.486 197.666 521.883 196.35C520.965 196.581 520.098 196.772 519.282 196.924C518.476 197.094 517.746 197.224 517.09 197.313L498.245 199.823L506.122 214.335ZM497.503 234.343L494.999 229.73C494.714 229.205 494.611 228.703 494.691 228.223C494.77 227.743 494.975 227.316 495.306 226.942L502.733 218.287L493.069 200.484L481.765 201.996C481.338 202.058 480.877 201.993 480.384 201.799C479.909 201.596 479.535 201.241 479.26 200.735L476.756 196.122L525.874 190.287L529.156 196.334L497.503 234.343ZM539.561 263.663C536.542 265.301 533.531 266.305 530.527 266.673C527.533 267.061 524.667 266.856 521.929 266.061C519.21 265.255 516.696 263.889 514.388 261.962C512.08 260.035 510.112 257.571 508.483 254.571L500.24 239.385L540.625 217.463L548.869 232.65C550.497 235.649 551.491 238.642 551.849 241.627C552.207 244.613 551.974 247.47 551.15 250.199C550.344 252.919 548.954 255.433 546.979 257.743C545.033 260.061 542.561 262.035 539.561 263.663ZM536.233 257.532C538.633 256.229 540.601 254.736 542.139 253.052C543.695 251.357 544.799 249.545 545.449 247.614C546.129 245.691 546.348 243.679 546.105 241.577C545.873 239.495 545.182 237.394 544.032 235.275L539.055 226.107L508.344 242.777L513.32 251.946C514.47 254.064 515.855 255.789 517.475 257.118C519.105 258.467 520.902 259.385 522.866 259.872C524.859 260.368 526.98 260.43 529.23 260.059C531.48 259.687 533.814 258.845 536.233 257.532ZM564.085 308.843C561.067 310.482 558.027 311.501 554.967 311.9C551.935 312.307 549.022 312.128 546.228 311.363C543.453 310.588 540.893 309.247 538.547 307.341C536.201 305.434 534.214 302.981 532.586 299.981C530.968 297 529.993 293.997 529.662 290.973C529.341 287.967 529.612 285.089 530.474 282.34C531.365 279.599 532.802 277.059 534.785 274.72C536.787 272.371 539.297 270.377 542.316 268.739C545.316 267.11 548.346 266.097 551.406 265.698C554.467 265.299 557.379 265.478 560.145 266.234C562.939 266.999 565.509 268.335 567.854 270.241C570.229 272.157 572.225 274.605 573.843 277.586C575.472 280.586 576.437 283.594 576.739 286.61C577.06 289.615 576.78 292.498 575.899 295.258C575.037 298.007 573.6 300.547 571.588 302.878C569.586 305.226 567.085 307.215 564.085 308.843ZM560.757 302.712C563.157 301.41 565.135 299.911 566.691 298.217C568.248 296.523 569.361 294.705 570.03 292.764C570.71 290.841 570.938 288.824 570.714 286.712C570.501 284.619 569.819 282.514 568.669 280.395C567.519 278.276 566.119 276.548 564.47 275.21C562.832 273.89 561.016 272.982 559.023 272.486C557.031 271.99 554.9 271.933 552.631 272.315C550.363 272.697 548.029 273.539 545.629 274.842C543.21 276.155 541.223 277.658 539.666 279.352C538.129 281.037 537.025 282.849 536.356 284.791C535.686 286.732 535.458 288.749 535.672 290.842C535.914 292.943 536.611 295.053 537.761 297.172C538.911 299.291 540.296 301.015 541.915 302.345C543.564 303.683 545.38 304.59 547.362 305.068C549.355 305.564 551.476 305.626 553.726 305.255C555.995 304.873 558.339 304.025 560.757 302.712ZM568.282 353.401C569.107 354.92 569.987 356.117 570.923 356.992C571.87 357.886 572.836 358.503 573.821 358.842C574.816 359.2 575.822 359.309 576.839 359.17C577.874 359.02 578.898 358.671 579.911 358.121C581.917 357.032 583.115 355.484 583.506 353.475C583.915 351.457 583.331 348.995 581.753 346.089L577.174 337.651L563.702 344.964L568.282 353.401ZM594.639 328.171L581.42 335.346L585.161 342.237C586.758 345.18 588.535 347.044 590.489 347.828C592.473 348.62 594.477 348.467 596.502 347.367C598.808 346.116 600.115 344.52 600.422 342.582C600.729 340.643 600.099 338.23 598.531 335.343L594.639 328.171ZM603.228 332.793C604.602 335.325 605.534 337.622 606.023 339.687C606.523 341.77 606.629 343.642 606.341 345.304C606.054 346.965 605.401 348.423 604.384 349.679C603.395 350.944 602.076 352.024 600.426 352.92C599.451 353.449 598.432 353.808 597.37 353.997C596.307 354.185 595.214 354.184 594.09 353.992C592.986 353.791 591.87 353.389 590.742 352.788C589.615 352.186 588.499 351.36 587.394 350.309C589.417 356.808 587.944 361.407 582.976 364.104C581.251 365.04 579.503 365.576 577.732 365.712C575.98 365.838 574.257 365.571 572.565 364.912C570.872 364.253 569.261 363.186 567.731 361.71C566.202 360.234 564.822 358.362 563.59 356.093L555.698 341.553L596.084 319.631L603.228 332.793Z" fill="black"/>
<path d="M122.191 343.689L127.305 346.269L115.458 369.754L74.4308 349.058L77.5007 342.972L113.414 361.089L122.191 343.689ZM126.005 310.836L107.021 308.894C105.714 308.785 104.122 308.531 102.244 308.133C102.957 308.756 103.608 309.359 104.198 309.943C104.797 310.508 105.32 311.035 105.766 311.523L118.568 325.579L126.005 310.836ZM147.358 306.519L144.994 311.205C144.725 311.738 144.371 312.109 143.931 312.317C143.491 312.525 143.024 312.6 142.528 312.541L131.183 311.37L122.06 329.455L129.744 337.883C130.038 338.199 130.247 338.615 130.369 339.13C130.472 339.636 130.394 340.147 130.134 340.661L127.771 345.346L94.9875 308.307L98.0862 302.165L147.358 306.519ZM147.487 255.25C150.553 256.797 153.094 258.7 155.109 260.958C157.133 263.198 158.598 265.669 159.504 268.373C160.391 271.066 160.701 273.91 160.433 276.905C160.164 279.9 159.262 282.921 157.724 285.969L149.941 301.397L108.914 280.7L116.697 265.272C118.234 262.225 120.128 259.703 122.377 257.708C124.626 255.712 127.107 254.276 129.819 253.398C132.513 252.511 135.372 252.22 138.395 252.527C141.409 252.805 144.439 253.712 147.487 255.25ZM144.345 261.478C141.907 260.248 139.558 259.481 137.298 259.178C135.019 258.864 132.9 258.99 130.942 259.556C128.975 260.092 127.197 261.059 125.608 262.456C124.029 263.834 122.697 265.599 121.611 267.751L116.913 277.065L148.112 292.804L152.81 283.49C153.896 281.337 154.524 279.217 154.693 277.128C154.872 275.02 154.603 273.021 153.885 271.129C153.157 269.209 151.999 267.43 150.412 265.793C148.824 264.156 146.802 262.718 144.345 261.478ZM170.641 209.352C173.707 210.899 176.276 212.816 178.348 215.103C180.41 217.362 181.923 219.858 182.887 222.59C183.831 225.312 184.188 228.181 183.958 231.195C183.728 234.209 182.844 237.239 181.307 240.287C179.779 243.315 177.867 245.827 175.57 247.823C173.282 249.799 170.763 251.216 168.013 252.075C165.252 252.904 162.346 253.171 159.294 252.874C156.223 252.567 153.155 251.64 150.088 250.093C147.041 248.556 144.481 246.643 142.409 244.356C140.338 242.068 138.825 239.573 137.871 236.869C136.907 234.137 136.541 231.264 136.771 228.25C136.992 225.208 137.866 222.172 139.394 219.143C140.931 216.096 142.853 213.589 145.159 211.622C147.446 209.646 149.975 208.233 152.745 207.385C155.495 206.526 158.401 206.26 161.463 206.586C164.534 206.892 167.593 207.814 170.641 209.352ZM167.499 215.58C165.061 214.35 162.702 213.578 160.423 213.265C158.144 212.952 156.016 213.073 154.039 213.629C152.072 214.165 150.284 215.128 148.676 216.515C147.078 217.883 145.736 219.643 144.651 221.795C143.565 223.948 142.942 226.083 142.782 228.2C142.631 230.298 142.92 232.308 143.647 234.228C144.375 236.148 145.542 237.932 147.149 239.578C148.755 241.225 150.778 242.663 153.216 243.893C155.673 245.133 158.041 245.909 160.32 246.223C162.58 246.527 164.698 246.4 166.675 245.845C168.652 245.289 170.44 244.327 172.038 242.959C173.627 241.562 174.964 239.787 176.05 237.635C177.135 235.483 177.763 233.362 177.933 231.273C178.093 229.156 177.804 227.146 177.067 225.245C176.339 223.325 175.181 221.546 173.594 219.909C171.987 218.263 169.956 216.819 167.499 215.58ZM197.054 169.993L178.071 168.05C176.764 167.941 175.172 167.687 173.294 167.289C174.007 167.912 174.658 168.515 175.248 169.099C175.847 169.664 176.37 170.191 176.816 170.679L189.618 184.735L197.054 169.993ZM218.407 165.675L216.044 170.361C215.775 170.894 215.42 171.265 214.981 171.473C214.541 171.682 214.073 171.756 213.577 171.697L202.233 170.526L193.11 188.611L200.793 197.039C201.088 197.355 201.297 197.771 201.419 198.287C201.522 198.793 201.444 199.303 201.184 199.817L198.821 204.503L166.037 167.464L169.136 161.321L218.407 165.675Z" fill="black"/>
<path d="M283.955 694.592C285.683 694.592 287.155 694.389 288.371 693.984C289.608 693.579 290.611 693.024 291.379 692.32C292.168 691.616 292.744 690.784 293.107 689.824C293.47 688.843 293.651 687.776 293.651 686.624C293.651 684.341 292.862 682.549 291.283 681.248C289.704 679.925 287.262 679.264 283.955 679.264H274.355V694.592H283.955ZM274.355 659.392V674.432H282.195C285.544 674.432 288.03 673.76 289.651 672.416C291.294 671.051 292.115 669.216 292.115 666.912C292.115 664.288 291.336 662.379 289.779 661.184C288.222 659.989 285.8 659.392 282.515 659.392H274.355ZM282.515 654.048C285.395 654.048 287.859 654.325 289.907 654.88C291.976 655.435 293.672 656.235 294.995 657.28C296.318 658.325 297.288 659.595 297.907 661.088C298.547 662.56 298.867 664.235 298.867 666.112C298.867 667.221 298.696 668.288 298.355 669.312C298.014 670.336 297.491 671.296 296.787 672.192C296.083 673.067 295.198 673.856 294.131 674.56C293.064 675.264 291.806 675.851 290.355 676.32C297.032 677.643 300.371 681.131 300.371 686.784C300.371 688.747 300.008 690.539 299.283 692.16C298.558 693.76 297.502 695.147 296.115 696.32C294.728 697.493 293.022 698.4 290.995 699.04C288.968 699.68 286.664 700 284.083 700H267.539V654.048H282.515ZM332.83 682.88L326.014 665.056C325.523 663.84 325.033 662.304 324.542 660.448C324.307 661.365 324.062 662.219 323.806 663.008C323.571 663.797 323.337 664.501 323.102 665.12L316.318 682.88H332.83ZM346.302 700H341.054C340.457 700 339.966 699.851 339.582 699.552C339.198 699.253 338.921 698.869 338.75 698.4L334.686 687.744H314.43L310.366 698.4C310.217 698.805 309.939 699.179 309.534 699.52C309.129 699.84 308.638 700 308.062 700H302.814L321.118 654.048H327.998L346.302 700ZM375.815 661.536C375.602 661.899 375.378 662.165 375.143 662.336C374.908 662.507 374.61 662.592 374.247 662.592C373.863 662.592 373.426 662.421 372.935 662.08C372.444 661.717 371.826 661.323 371.079 660.896C370.354 660.448 369.479 660.053 368.455 659.712C367.431 659.349 366.204 659.168 364.775 659.168C363.431 659.168 362.247 659.349 361.223 659.712C360.22 660.053 359.378 660.533 358.695 661.152C358.012 661.749 357.49 662.464 357.127 663.296C356.786 664.107 356.615 664.992 356.615 665.952C356.615 667.189 356.924 668.213 357.543 669.024C358.183 669.835 359.015 670.528 360.039 671.104C361.063 671.68 362.226 672.181 363.527 672.608C364.828 673.035 366.162 673.483 367.527 673.952C368.892 674.4 370.226 674.923 371.527 675.52C372.828 676.117 373.991 676.875 375.015 677.792C376.039 678.688 376.86 679.797 377.479 681.12C378.119 682.421 378.439 684.021 378.439 685.92C378.439 687.947 378.087 689.845 377.383 691.616C376.7 693.387 375.698 694.933 374.375 696.256C373.052 697.579 371.42 698.624 369.479 699.392C367.559 700.139 365.372 700.512 362.919 700.512C361.447 700.512 360.018 700.363 358.631 700.064C357.244 699.787 355.932 699.392 354.695 698.88C353.458 698.347 352.295 697.717 351.207 696.992C350.14 696.245 349.18 695.413 348.327 694.496L350.279 691.232C350.471 690.976 350.695 690.763 350.951 690.592C351.228 690.421 351.538 690.336 351.879 690.336C352.327 690.336 352.839 690.571 353.415 691.04C354.012 691.509 354.738 692.032 355.591 692.608C356.466 693.163 357.5 693.675 358.695 694.144C359.911 694.613 361.383 694.848 363.111 694.848C364.519 694.848 365.778 694.667 366.887 694.304C367.996 693.92 368.924 693.387 369.671 692.704C370.439 692 371.026 691.157 371.431 690.176C371.836 689.195 372.039 688.107 372.039 686.912C372.039 685.568 371.73 684.469 371.111 683.616C370.492 682.763 369.671 682.048 368.647 681.472C367.623 680.896 366.46 680.405 365.159 680C363.858 679.595 362.524 679.179 361.159 678.752C359.794 678.304 358.46 677.792 357.159 677.216C355.858 676.64 354.695 675.893 353.671 674.976C352.647 674.037 351.826 672.875 351.207 671.488C350.588 670.08 350.279 668.352 350.279 666.304C350.279 664.661 350.599 663.072 351.239 661.536C351.879 660 352.807 658.645 354.023 657.472C355.26 656.277 356.775 655.328 358.567 654.624C360.359 653.899 362.407 653.536 364.711 653.536C367.292 653.536 369.66 653.952 371.815 654.784C373.991 655.595 375.879 656.768 377.479 658.304L375.815 661.536ZM415.364 694.464L415.332 700H386.852V654.048H415.332V659.584H393.7V674.144H411.108V679.488H393.7V694.464H415.364Z" fill="black"/>
</svg>
