<svg width="50" height="49" viewBox="0 0 50 49" fill="none" xmlns="http://www.w3.org/2000/svg">
<path d="M22.8615 0.0574461C11.947 1.08464 3.08129 9.20247 0.927106 20.1526C0.553714 22.0075 0.457973 23.3438 0.515418 25.8071C0.54414 27.4825 0.611159 28.3402 0.77392 29.2677C1.95154 36.1788 5.63759 42.0328 11.3055 45.982C12.5406 46.8397 14.9724 48.1262 16.4277 48.6747C17.4904 49.0835 18.017 49.1035 18.4765 48.7544C18.9361 48.3954 18.9648 48.2359 18.9648 45.7526V43.419L18.3712 43.5088C18.0361 43.5487 17.0979 43.5885 16.2841 43.5786C14.9437 43.5686 14.733 43.5487 14.1011 43.3093C13.7086 43.1697 13.1533 42.9004 12.8661 42.7209C12.2725 42.3519 11.2385 41.2549 10.9991 40.7363C10.0513 38.6919 9.80235 38.2232 9.39066 37.6847C9.12259 37.3456 8.57686 36.817 8.13645 36.4879C7.70561 36.1688 7.2652 35.7898 7.15031 35.6303C6.9684 35.381 6.9684 35.351 7.12159 35.1915C7.36094 34.9422 8.29921 34.9023 8.9311 35.1117C10.08 35.5006 10.9991 36.2885 11.8799 37.6647C13.048 39.4598 14.3788 40.2477 16.2266 40.2477C16.8681 40.2477 17.9021 40.0382 18.5819 39.7889C19.0127 39.6294 19.0223 39.6194 19.1276 39.031C19.2712 38.2631 19.8073 37.0863 20.2573 36.5677C20.4584 36.3483 20.5733 36.1588 20.535 36.1588C20.4871 36.1588 20.0371 36.089 19.5393 36.0092C16.1883 35.4508 14.149 34.5333 12.4257 32.788C10.5587 30.8932 9.63002 28.4 9.42896 24.6902C9.28535 22.0574 9.92681 19.7935 11.3534 17.8289L11.8895 17.1009L11.6693 16.2333C11.2959 14.7074 11.4012 12.6929 11.9565 11.0275L12.1384 10.479L12.8948 10.489C14.149 10.5189 15.8341 11.1771 17.8063 12.4237L18.8116 13.052L19.7212 12.8326C23.1104 12.0547 26.7007 12.0347 29.9847 12.7927L31.0953 13.042L32.091 12.4336C34.1973 11.1272 35.7483 10.5189 37.0025 10.489L37.7589 10.479L37.9408 11.0275C38.5535 12.8724 38.6301 14.9667 38.1419 16.5823L37.9887 17.0909L38.3908 17.5995C39.779 19.3248 40.5067 21.5288 40.5067 23.9921C40.5067 26.8742 39.8078 29.6067 38.5918 31.4716C37.0504 33.8352 34.2069 35.4109 30.5017 35.9594C29.1517 36.1588 29.2283 36.099 29.6879 36.6176C29.9081 36.8669 30.224 37.3655 30.3772 37.7345C30.9134 38.9712 30.9517 39.39 30.9421 43.8578C30.9229 47.2087 30.9517 47.9766 31.0666 48.2558C31.4974 49.3428 32.7229 49.1633 35.8632 47.5876C42.9672 44.0174 47.8405 37.3257 49.2192 29.2677C49.4872 27.7319 49.583 24.1816 49.4202 22.4662C48.8553 16.7818 46.2607 11.2668 42.2587 7.23783C40.3535 5.31309 38.5057 3.9568 36.0547 2.70023C33.4601 1.36388 31.3921 0.675757 28.673 0.256901C27.1411 0.0275278 24.2785 -0.0721998 22.8615 0.0574461Z" fill="white"/>
</svg>
