<svg width="50" height="49" viewBox="0 0 50 49" fill="none" xmlns="http://www.w3.org/2000/svg">
<path d="M21.8885 0.129242C17.4668 0.703656 13.4184 2.39818 9.87719 5.13622C8.75741 6.00741 6.85284 7.88383 5.92448 9.03266C3.28295 12.3068 1.53151 16.1745 0.784995 20.3869C0.517015 21.8804 0.411737 25.4705 0.58401 27.1076C1.36881 34.4409 5.41723 41.0371 11.6478 45.1059C14.7487 47.1259 18.242 48.3992 22.032 48.8683C23.4868 49.0502 26.5494 49.0406 28.0616 48.8587C39.1636 47.4801 47.9783 38.6628 49.3564 27.5575C49.5479 26.0066 49.5479 22.9813 49.3564 21.4304C48.4759 14.3077 44.4849 7.92213 38.4458 3.94909C35.297 1.8812 31.7942 0.598347 28.0616 0.129242C26.6068 -0.0430824 23.2666 -0.0430824 21.8885 0.129242ZM16.2609 10.7176C17.017 11.0048 17.7252 11.7037 18.0123 12.4791C18.4143 13.5705 18.1367 14.8821 17.3232 15.6576C16.749 16.2128 16.0503 16.4809 15.1219 16.5288C14.117 16.5766 13.4662 16.4043 12.7867 15.8873C10.9108 14.4704 11.3989 11.4739 13.6289 10.6985C14.3563 10.4495 15.5431 10.4591 16.2609 10.7176ZM34.2251 18.8934C35.3258 19.1232 36.4072 19.7168 37.2112 20.5209C37.7854 21.0954 37.9864 21.3921 38.3788 22.2059C39.2976 24.1015 39.355 24.6854 39.355 31.5497V37.0353H36.4455H33.5265L33.4882 31.6454C33.4499 25.796 33.4403 25.7098 32.8948 24.695C32.3493 23.6994 31.507 23.2877 30.1767 23.3643C28.9708 23.4409 28.0233 24.0919 27.4203 25.2599L27.1524 25.7864L27.1236 31.4061L27.0949 37.0353H24.1854H21.2664V28.0841V19.1328H24.1854H27.1045V20.3773C27.1045 21.0571 27.1332 21.6219 27.1811 21.6219C27.2193 21.6219 27.3916 21.4017 27.5735 21.1336C28.2626 20.1284 29.5546 19.2381 30.8371 18.903C31.5262 18.7211 33.3829 18.7115 34.2251 18.8934ZM17.8209 28.0841V37.0353H14.9018H11.9827V28.0841V19.1328H14.9018H17.8209V28.0841Z" fill="white"/>
</svg>
