<svg width="50" height="49" viewBox="0 0 50 49" fill="none" xmlns="http://www.w3.org/2000/svg">
<path d="M21.8885 0.129242C17.4668 0.703656 13.4184 2.39818 9.87719 5.13622C8.75741 6.00741 6.85284 7.88383 5.92448 9.03266C3.28295 12.3068 1.53151 16.1745 0.784995 20.3869C0.517015 21.8804 0.411737 25.4705 0.58401 27.1076C1.36881 34.4409 5.41723 41.0371 11.6478 45.1059C14.7487 47.1259 18.242 48.3992 22.032 48.8683C23.4868 49.0502 26.5494 49.0406 28.0616 48.8587C39.1636 47.4801 47.9783 38.6628 49.3564 27.5575C49.5479 26.0066 49.5479 22.9813 49.3564 21.4304C48.4759 14.3077 44.4849 7.92213 38.4458 3.94909C35.297 1.8812 31.7942 0.598347 28.0616 0.129242C26.6068 -0.0430824 23.2666 -0.0430824 21.8885 0.129242ZM31.8324 13.7716C32.7321 14.0013 33.5743 14.4322 34.1868 14.9874L34.6462 15.3991L35.3736 15.2076C36.1967 14.9874 36.8379 14.7481 37.5462 14.3843C37.8141 14.2503 38.0438 14.1545 38.063 14.1737C38.13 14.2407 37.6419 15.1214 37.259 15.6384C37.0389 15.9352 36.5987 16.3756 36.2828 16.6149C35.9766 16.8638 35.7373 17.0745 35.7564 17.1032C35.8617 17.1989 37.9194 16.6915 38.6277 16.3947C38.7999 16.3277 38.7904 16.3564 38.5894 16.6532C38.2257 17.151 37.0963 18.319 36.5891 18.702L36.1297 19.0466L36.1201 20.1763C36.0627 24.4652 33.9189 29.0797 30.6648 31.9231C28.0807 34.1824 25.1425 35.3983 21.5248 35.7142C18.6057 35.9631 15.7919 35.4078 13.0355 34.0388L11.8392 33.4453L13.3226 33.3782C15.0262 33.3112 16.079 33.0815 17.4955 32.4687C18.309 32.1145 19.9265 31.138 19.9265 30.9944C19.9265 30.9657 19.6968 30.9083 19.4096 30.87C17.5816 30.6593 15.9259 29.5201 15.0932 27.9117L14.7391 27.2224L15.878 27.165C17.2658 27.098 17.4668 27.0118 16.7585 26.7916C15.3134 26.3512 14.0309 25.2886 13.3896 24.0057C13.0068 23.2494 12.7484 22.3591 12.7484 21.8325C12.7484 21.5549 12.7771 21.5166 12.9207 21.574C13.5906 21.8517 14.1744 22.0144 14.6817 22.0719L15.2751 22.1293L14.5094 21.373C13.2078 20.0806 12.6048 18.4435 12.825 16.7872C12.9111 16.1075 13.1887 15.1789 13.3992 14.8534C13.4566 14.7672 13.8299 15.0832 14.6243 15.8586C15.9737 17.1798 17.0265 17.9552 18.5865 18.7498C20.3763 19.6593 22.501 20.2816 24.3673 20.4348L25.0755 20.5018L25.0276 19.554C24.9415 17.8116 25.4583 16.4617 26.6738 15.2459C28.0903 13.8386 29.9853 13.2929 31.8324 13.7716Z" fill="white"/>
</svg>
